<svg xmlns="http://www.w3.org/2000/svg" viewBox="0 0 128 128"><defs><linearGradient id="bg" x2="0" y2="1"><stop stop-color="#e7edcf"/><stop offset="1" stop-color="#b3cb95"/></linearGradient><linearGradient id="gold" x2=".5" y2="1"><stop stop-color="#fff0a8"/><stop offset=".5" stop-color="#eec763"/><stop offset="1" stop-color="#c7963e"/></linearGradient><linearGradient id="water" x2=".4" y2="1"><stop stop-color="#80e4de"/><stop offset="1" stop-color="#2199b0"/></linearGradient><linearGradient id="silver" x2=".8" y2="1"><stop stop-color="#f4f9fa"/><stop offset=".5" stop-color="#c2d4df"/><stop offset="1" stop-color="#8ca9bc"/></linearGradient><linearGradient id="pink" x2=".7" y2="1"><stop stop-color="#ffdfd4"/><stop offset=".6" stop-color="#e9abb1"/><stop offset="1" stop-color="#ce8899"/></linearGradient></defs><rect x="2" y="2" width="124" height="124" rx="28" fill="url(#bg)"/><path d="M28 5h72q23 0 23 23" fill="none" stroke="#fff" stroke-opacity=".55" stroke-width="2"/><path d="m12 87 62-28 44 29-61 28Z" fill="#719b6c"/><path d="m28 70 42-24 33 17v32l-43 17-32-20Z" fill="#efe5d0"/><path d="m60 81 43-18v32l-43 17Z" fill="#d7c6aa"/><path d="m20 67 39-37 22 11 30 24-50 23Z" fill="#aa6252"/><path d="m59 30 2 58-41-21Z" fill="#d98d6d"/><path d="m27 64 32-25m-24 29 24-22m-14 27 14-13m8-15 35 20" stroke="#f1b593" stroke-width="2"/><path d="m37 79 12 7v16l-12-7Z" fill="#3e6b76"/><path d="m70 82 10-4v13l-10 4Zm17-7 9-4v13l-9 4Z" fill="#507f88"/><path d="m37 79 12 7m21-4 10-4m7-3 9-4" stroke="#fff8da" stroke-width="3"/><path d="m43 100-12 8 13 7 14-10" fill="#e2d5b7"/><path d="M18 87V68m89 30V79" stroke="#806d42" stroke-width="4"/><ellipse cx="18" cy="62" rx="11" ry="15" fill="#438766"/><ellipse cx="107" cy="74" rx="9" ry="13" fill="#559e6b"/></svg>